<?xml version="1.0" encoding="UTF-8"?>
<svg version="1.1" xmlns="http://www.w3.org/2000/svg" width="225" height="225">
<path d="M0 0 C74.25 0 148.5 0 225 0 C225 74.25 225 148.5 225 225 C150.75 225 76.5 225 0 225 C0 150.75 0 76.5 0 0 Z " fill="#FDFDFD" transform="translate(0,0)"/>
<path d="M0 0 C5.39775338 3.7375891 8.38331923 8.33745769 10.4375 14.5 C10.53550466 16.58282093 10.5725107 18.66868111 10.57794189 20.75379944 C10.58365204 22.06449402 10.58936218 23.3751886 10.59524536 24.7256012 C10.59649074 26.18173208 10.59761583 27.63786308 10.59863281 29.09399414 C10.60326142 30.62499104 10.60828614 32.15598679 10.61367798 33.6869812 C10.62680438 37.85056491 10.633248 42.01413249 10.63768864 46.17773366 C10.64062043 48.7810985 10.64472556 51.38445895 10.64919281 53.98782158 C10.66287158 62.13889834 10.67253502 70.28996505 10.6763947 78.4410525 C10.6808693 87.83862008 10.69838775 97.23604177 10.7273953 106.63356501 C10.74905273 113.90336371 10.75910123 121.1731215 10.76043582 128.4429521 C10.76148142 132.78157022 10.76733624 137.12005128 10.78525543 141.45863533 C10.8018053 145.54542157 10.8038583 149.63196877 10.79511642 153.7187767 C10.7943496 155.21265112 10.79864168 156.70653874 10.80857468 158.20038033 C10.86672299 167.49642631 10.56834825 176.08122418 5.8125 184.3125 C-1.27459935 190.8400915 -7.38384815 192.28618124 -17.03515625 191.91015625 C-25.11970034 190.97009298 -29.15783959 187.40283486 -34.3125 181.3046875 C-35.5625 179.5 -35.5625 179.5 -35.5625 177.5 C-36.24054687 177.53480469 -36.91859375 177.56960937 -37.6171875 177.60546875 C-48.35386699 177.91775444 -56.54411338 175.84587677 -64.5625 168.5 C-71.31400176 161.97814116 -73.67696995 155.98932193 -74.0625 146.625 C-73.95937176 140.63067122 -72.71012479 136.51434827 -69.65625 131.390625 C-68.39558192 129.57550435 -68.39558192 129.57550435 -68.5625 127.5 C-70.36052527 126.41818813 -72.20346092 125.41073457 -74.0625 124.4375 C-82.42227715 119.66611776 -88.73687008 113.62142194 -91.9296875 104.359375 C-94.08699303 94.61155003 -93.44668527 85.86375315 -88.4609375 77.15625 C-83.28784545 69.91817881 -76.45672961 65.38179612 -68.5625 61.5 C-69.63172505 58.21007678 -70.74946503 55.09011512 -72.1875 51.9375 C-74.58841848 45.46492079 -74.74008183 38.26826186 -72.68359375 31.6875 C-68.23897523 22.06482757 -61.36870901 16.31527746 -51.5625 12.5 C-47.90500049 11.55782813 -44.51935949 11.39208603 -40.75 11.4375 C-39.77417969 11.44652344 -38.79835937 11.45554687 -37.79296875 11.46484375 C-36.68888672 11.48224609 -36.68888672 11.48224609 -35.5625 11.5 C-35.18351562 10.37658203 -35.18351562 10.37658203 -34.796875 9.23046875 C-33.4740471 6.30433994 -32.22568722 4.89364015 -29.8125 2.8125 C-28.83023438 1.94044922 -28.83023438 1.94044922 -27.828125 1.05078125 C-19.93536028 -4.35168012 -8.28051956 -4.56856251 0 0 Z " fill="#FCFCFC" transform="translate(97.5625,14.5)"/>
<path d="M0 0 C5.80180936 2.27856527 9.85786133 6.24314177 13.3203125 11.38671875 C13.3203125 12.04671875 13.3203125 12.70671875 13.3203125 13.38671875 C14.04734375 13.32871094 14.774375 13.27070313 15.5234375 13.2109375 C25.62860733 12.75750039 33.86638775 15.24394447 41.7578125 21.69921875 C47.27869109 26.96705708 50.93274786 32.64064026 51.55859375 40.3046875 C51.70607456 46.80160534 51.38618659 51.70815101 48.29296875 57.484375 C47.29353867 59.43908363 46.7733378 61.24557812 46.3203125 63.38671875 C46.96097656 63.75023438 47.60164063 64.11375 48.26171875 64.48828125 C58.56118358 70.47455738 66.50570186 76.67519484 70.3203125 88.38671875 C71.56071226 100.54263641 69.84626618 108.91264918 62.1328125 118.63671875 C58.16127642 122.94867221 53.41339025 125.59086838 48.3203125 128.38671875 C47.3303125 129.04671875 46.3403125 129.70671875 45.3203125 130.38671875 C45.7534375 131.09054688 46.1865625 131.794375 46.6328125 132.51953125 C51.16217175 140.55075622 52.74081027 147.20729 51.3203125 156.38671875 C48.83639644 164.37229098 43.91586545 170.90872451 36.53125 174.890625 C30.56587182 177.65295711 25.75611851 179.52043709 19.1328125 179.44921875 C18.04613281 179.44019531 16.95945313 179.43117187 15.83984375 179.421875 C14.59267578 179.40447266 14.59267578 179.40447266 13.3203125 179.38671875 C13.06765625 180.13566406 12.815 180.88460937 12.5546875 181.65625 C11.2318596 184.58237881 9.98349972 185.9930786 7.5703125 188.07421875 C6.91546875 188.65558594 6.260625 189.23695313 5.5859375 189.8359375 C-1.04630926 194.37559606 -8.95053474 194.35498624 -16.6796875 193.38671875 C-22.94290854 191.01552541 -27.73806556 187.51509778 -30.6796875 181.38671875 C-33.20144152 173.7653461 -32.98356635 166.18341197 -32.98608398 158.22509766 C-32.99371503 156.6933604 -33.00214413 155.16162694 -33.01130676 153.62989807 C-33.03316184 149.48726297 -33.04203816 145.34470163 -33.04713321 141.2020154 C-33.05078657 138.60950514 -33.05703159 136.01701392 -33.0641346 133.42451096 C-33.08859505 124.36795968 -33.10167422 115.31146543 -33.10522461 106.25488281 C-33.10886021 97.83190025 -33.13876601 89.40928197 -33.18062919 80.98641074 C-33.21538505 73.73773289 -33.23077394 66.48917554 -33.23147064 59.24041498 C-33.23226146 54.91854287 -33.24091049 50.5970426 -33.26946831 46.27525711 C-33.2957412 42.20878602 -33.29780341 38.14299274 -33.28181267 34.07647514 C-33.28000564 32.59065071 -33.28662114 31.10478644 -33.30263138 29.61904716 C-33.39056796 20.92333103 -32.81398201 13.72188803 -27.6796875 6.38671875 C-25.29296875 4.1328125 -25.29296875 4.1328125 -22.9921875 2.82421875 C-22.22519531 2.36917969 -21.45820313 1.91414062 -20.66796875 1.4453125 C-14.42796069 -1.87697077 -6.84263848 -1.56602659 0 0 Z " fill="#FCFCFC" transform="translate(149.6796875,12.61328125)"/>
<path d="M0 0 C5.39775338 3.7375891 8.38331923 8.33745769 10.4375 14.5 C10.53550466 16.58282093 10.5725107 18.66868111 10.57794189 20.75379944 C10.58365204 22.06449402 10.58936218 23.3751886 10.59524536 24.7256012 C10.59649074 26.18173208 10.59761583 27.63786308 10.59863281 29.09399414 C10.60326142 30.62499104 10.60828614 32.15598679 10.61367798 33.6869812 C10.62680438 37.85056491 10.633248 42.01413249 10.63768864 46.17773366 C10.64062043 48.7810985 10.64472556 51.38445895 10.64919281 53.98782158 C10.66287158 62.13889834 10.67253502 70.28996505 10.6763947 78.4410525 C10.6808693 87.83862008 10.69838775 97.23604177 10.7273953 106.63356501 C10.74905273 113.90336371 10.75910123 121.1731215 10.76043582 128.4429521 C10.76148142 132.78157022 10.76733624 137.12005128 10.78525543 141.45863533 C10.8018053 145.54542157 10.8038583 149.63196877 10.79511642 153.7187767 C10.7943496 155.21265112 10.79864168 156.70653874 10.80857468 158.20038033 C10.86672299 167.49642631 10.56834825 176.08122418 5.8125 184.3125 C-1.27459935 190.8400915 -7.38384815 192.28618124 -17.03515625 191.91015625 C-25.11970034 190.97009298 -29.15783959 187.40283486 -34.3125 181.3046875 C-35.5625 179.5 -35.5625 179.5 -35.5625 177.5 C-36.24054687 177.53480469 -36.91859375 177.56960937 -37.6171875 177.60546875 C-48.35386699 177.91775444 -56.54411338 175.84587677 -64.5625 168.5 C-71.31400176 161.97814116 -73.67696995 155.98932193 -74.0625 146.625 C-73.95937176 140.63067122 -72.71012479 136.51434827 -69.65625 131.390625 C-68.39558192 129.57550435 -68.39558192 129.57550435 -68.5625 127.5 C-70.36052527 126.41818813 -72.20346092 125.41073457 -74.0625 124.4375 C-82.42227715 119.66611776 -88.73687008 113.62142194 -91.9296875 104.359375 C-94.08699303 94.61155003 -93.44668527 85.86375315 -88.4609375 77.15625 C-83.28784545 69.91817881 -76.45672961 65.38179612 -68.5625 61.5 C-69.63172505 58.21007678 -70.74946503 55.09011512 -72.1875 51.9375 C-74.58841848 45.46492079 -74.74008183 38.26826186 -72.68359375 31.6875 C-68.23897523 22.06482757 -61.36870901 16.31527746 -51.5625 12.5 C-47.90500049 11.55782813 -44.51935949 11.39208603 -40.75 11.4375 C-39.77417969 11.44652344 -38.79835937 11.45554687 -37.79296875 11.46484375 C-36.68888672 11.48224609 -36.68888672 11.48224609 -35.5625 11.5 C-35.18351562 10.37658203 -35.18351562 10.37658203 -34.796875 9.23046875 C-33.4740471 6.30433994 -32.22568722 4.89364015 -29.8125 2.8125 C-28.83023438 1.94044922 -28.83023438 1.94044922 -27.828125 1.05078125 C-19.93536028 -4.35168012 -8.28051956 -4.56856251 0 0 Z M-29.5625 8.5 C-30.49149738 10.39482363 -30.49149738 10.39482363 -31.1875 12.3125 C-33.5625 15.5 -33.5625 15.5 -36.78125 15.98828125 C-38.75762131 16.05745425 -40.73418989 16.12587297 -42.71142578 16.1628418 C-51.76127888 16.41392204 -57.87507161 20.22166393 -64.08984375 26.55859375 C-68.58357775 32.482694 -69.18581407 37.60707154 -69.0625 44.8671875 C-68.27674634 50.57617896 -65.70565815 56.35684185 -61.5625 60.5 C-58.60861239 60.70739432 -55.70704382 60.82460886 -52.75 60.875 C-51.92951172 60.91238281 -51.10902344 60.94976562 -50.26367188 60.98828125 C-47.92611198 61.02240621 -45.85028718 60.98747853 -43.5625 60.5 C-41.06511354 58.18144001 -41.06511354 58.18144001 -39.5625 55.5 C-36.07488829 53.75619414 -32.26792291 54.63132943 -28.5625 55.5 C-25.89688076 57.68096119 -25.64864193 59.00468387 -25.0625 62.375 C-25.75915315 66.7290822 -27.29613445 68.58112015 -30.5625 71.5 C-34.0625 72.1875 -34.0625 72.1875 -37.5625 71.5 C-40.4375 69.0625 -40.4375 69.0625 -42.5625 66.5 C-45.25875912 63.80374088 -52.79459183 65.12742246 -56.41479492 65.11499023 C-63.54429596 65.22702266 -68.79746618 66.05236649 -74.5625 70.5 C-75.284375 71.01949219 -76.00625 71.53898437 -76.75 72.07421875 C-83.05619048 77.04729911 -86.98299542 82.21785931 -88.07421875 90.28125 C-88.61944274 98.96559431 -87.41248526 105.76629356 -81.5625 112.5 C-75.97417982 118.44477682 -69.56823667 122.69339571 -61.5625 124.5 C-61.8998618 128.0985259 -63.06245292 130.46849403 -65 133.4375 C-68.61168627 139.0116054 -70.23401818 143.78481815 -69.5625 150.5 C-67.40110454 158.52434242 -63.62017066 164.4505221 -56.4375 168.78125 C-51.01642869 171.57150729 -46.82589369 172.51707848 -40.6875 172.5625 C-34.11513158 172.97327303 -34.11513158 172.97327303 -31.8125 175.16796875 C-31.05955484 176.56144018 -30.35346036 177.98120487 -29.6953125 179.421875 C-27.73201696 183.02350682 -24.31924166 185.02007147 -20.5625 186.5 C-18.89614419 186.53218815 -17.22878457 186.53568649 -15.5625 186.5 C-15.44662604 178.09422444 -15.35779602 169.68878276 -15.30343914 161.28240585 C-15.27734969 157.37890149 -15.2419654 153.47594369 -15.18530273 149.57275391 C-15.13095687 145.80556116 -15.10107455 142.03889392 -15.08811378 138.27133942 C-15.07887826 136.83436052 -15.06084273 135.39741025 -15.03384972 133.96065521 C-14.99753682 131.94768854 -14.99545745 129.93419253 -14.99487305 127.92089844 C-14.98376999 126.77506287 -14.97266693 125.62922729 -14.96122742 124.44866943 C-15.7499833 120.58057297 -17.37606395 119.67348221 -20.5625 117.5 C-22.13185594 114.36128812 -21.91451103 111.96144178 -21.5625 108.5 C-19.5 105.5625 -19.5 105.5625 -16.5625 103.5 C-12.56442592 102.86872515 -10.55514015 102.82082516 -7.1875 105.125 C-5.19141751 108.04235134 -4.7064517 109.97318331 -4.5625 113.5 C-5.25 116.25 -5.25 116.25 -6.5625 118.5 C-8.5425 119.49 -8.5425 119.49 -10.5625 120.5 C-10.5625 142.28 -10.5625 164.06 -10.5625 186.5 C-4.84135366 185.54647561 -2.81635222 185.10652689 1.4375 181.5 C5.15516607 176.03556304 6.01048406 171.09268201 5.89160156 164.60546875 C5.89218567 163.7557399 5.89276978 162.90601105 5.89337158 162.03053284 C5.8906065 159.24909208 5.85959025 156.46875127 5.828125 153.6875 C5.82065698 151.74837835 5.8149667 149.80924911 5.81097412 147.87011719 C5.79576195 142.78679262 5.75651843 137.7039312 5.7121582 132.62078857 C5.67110993 127.42564152 5.65294274 122.23041902 5.6328125 117.03515625 C5.59001972 106.85656827 5.52182222 96.67832277 5.4375 86.5 C0.48959823 86.4506349 -4.45816083 86.41429731 -9.40625 86.39013672 C-11.09019466 86.38006683 -12.77412179 86.36641012 -14.45800781 86.34912109 C-16.87569501 86.32491574 -19.29315143 86.31352704 -21.7109375 86.3046875 C-22.84382706 86.28920364 -22.84382706 86.28920364 -23.99960327 86.27340698 C-25.8554398 86.27300682 -27.7106928 86.37777284 -29.5625 86.5 C-32.10648135 89.04398135 -31.82816143 89.98294759 -31.86889648 93.51293945 C-31.88488388 94.55774979 -31.90087128 95.60256012 -31.91734314 96.67903137 C-31.92270584 97.81233383 -31.92806854 98.94563629 -31.93359375 100.11328125 C-31.94262222 101.27498337 -31.9516507 102.43668549 -31.96095276 103.6335907 C-31.97548348 106.0957887 -31.98434896 108.55802556 -31.98803711 111.02026367 C-31.99991943 114.7869594 -32.04906925 118.55201037 -32.09960938 122.31835938 C-32.10907465 124.70832532 -32.11630918 127.09830135 -32.12109375 129.48828125 C-32.14062607 130.61551102 -32.16015839 131.74274078 -32.18028259 132.90412903 C-32.32031174 139.38721889 -32.32031174 139.38721889 -29.09008789 144.68823242 C-28.25598389 145.28611572 -27.42187988 145.88399902 -26.5625 146.5 C-26.2325 146.83 -25.9025 147.16 -25.5625 147.5 C-26.0141129 154.5 -26.0141129 154.5 -27.625 157.4375 C-30.8269424 159.1934039 -33.91727664 159.84040996 -37.5625 159.5 C-40.5625 157.5 -40.5625 157.5 -42.5625 154.5 C-43.1875 151 -43.1875 151 -42.5625 147.5 C-40.125 144.625 -40.125 144.625 -37.5625 142.5 C-36.11227056 141.27847338 -36.11227056 141.27847338 -36.44897461 137.62280273 C-36.44913379 135.89305833 -36.45483151 134.16330919 -36.46484375 132.43359375 C-36.4662587 131.52497086 -36.46767365 130.61634796 -36.46913147 129.68019104 C-36.47474807 126.76592779 -36.48730335 123.85174019 -36.5 120.9375 C-36.50501286 118.96679798 -36.50957614 116.99609476 -36.51367188 115.02539062 C-36.52472289 110.18356441 -36.54199862 105.34179505 -36.5625 100.5 C-39.31414432 100.36482097 -42.05914521 100.26584749 -44.8125 100.1875 C-45.58980469 100.14560547 -46.36710937 100.10371094 -47.16796875 100.06054688 C-49.40384316 100.01277178 -51.37375462 100.03313459 -53.5625 100.5 C-56.03133941 102.82370878 -56.03133941 102.82370878 -57.5625 105.5 C-60.45111709 106.94430855 -62.35897701 106.87688506 -65.5625 106.5 C-68.43709336 104.50028288 -70.19157801 103.01060972 -71.046875 99.52734375 C-71.29895855 95.78110213 -70.86813428 93.85956975 -68.4375 91 C-65.04999667 89.23260696 -63.3289742 88.8722543 -59.5625 89.5 C-56.86259338 91.29993774 -55.0206135 92.583773 -53.5625 95.5 C-47.9525 95.5 -42.3425 95.5 -36.5625 95.5 C-36.315 93.911875 -36.0675 92.32375 -35.8125 90.6875 C-35.06531092 85.89303671 -34.79541059 85.67468294 -30.5625 82.5 C-25.6125 82.17 -20.6625 81.84 -15.5625 81.5 C-15.5625 66.65 -15.5625 51.8 -15.5625 36.5 C-16.8825 35.84 -18.2025 35.18 -19.5625 34.5 C-21.86218563 31.28044012 -22.11598638 28.37440468 -21.5625 24.5 C-18.95460172 20.86474785 -17.4922642 19.66602932 -13.0625 18.875 C-9.5625 19.5 -9.5625 19.5 -6.5625 21.5 C-4.22160287 25.0113457 -4.18442667 26.50117692 -4.6796875 30.53515625 C-5.5625 32.5 -5.5625 32.5 -8.0871582 33.9831543 C-11.35391074 37.30468027 -11.13087619 39.29818166 -11.12898254 43.81414795 C-11.10317612 44.77782288 -11.07736969 45.7414978 -11.05078125 46.734375 C-11.04370651 47.72753723 -11.03663177 48.72069946 -11.02934265 49.74395752 C-11.00137288 52.91340733 -10.93862801 56.08108497 -10.875 59.25 C-10.84992054 61.39971406 -10.82710676 63.54945582 -10.80664062 65.69921875 C-10.7515374 70.96682776 -10.66524538 76.23311352 -10.5625 81.5 C-5.2825 81.5 -0.0025 81.5 5.4375 81.5 C5.52811019 73.03282589 5.60139303 64.56603294 5.64474869 56.09850311 C5.66556427 52.16607045 5.69377007 48.23398861 5.73925781 44.30175781 C5.782933 40.50214726 5.80668239 36.70287273 5.81700897 32.9030304 C5.82436174 31.45822363 5.83871968 30.01343386 5.86042023 28.56877136 C5.97435874 20.66441976 6.00005243 14.23999408 1.4375 7.5 C-4.60006382 2.69459206 -9.65170269 2.02650627 -17.19140625 2.09375 C-22.37707381 2.71867402 -25.93159269 4.7801395 -29.5625 8.5 Z " fill="#070707" transform="translate(97.5625,14.5)"/>
<path d="M0 0 C5.80180936 2.27856527 9.85786133 6.24314177 13.3203125 11.38671875 C13.3203125 12.04671875 13.3203125 12.70671875 13.3203125 13.38671875 C14.04734375 13.32871094 14.774375 13.27070313 15.5234375 13.2109375 C25.62860733 12.75750039 33.86638775 15.24394447 41.7578125 21.69921875 C47.27869109 26.96705708 50.93274786 32.64064026 51.55859375 40.3046875 C51.70607456 46.80160534 51.38618659 51.70815101 48.29296875 57.484375 C47.29353867 59.43908363 46.7733378 61.24557812 46.3203125 63.38671875 C46.96097656 63.75023438 47.60164063 64.11375 48.26171875 64.48828125 C58.56118358 70.47455738 66.50570186 76.67519484 70.3203125 88.38671875 C71.56071226 100.54263641 69.84626618 108.91264918 62.1328125 118.63671875 C58.16127642 122.94867221 53.41339025 125.59086838 48.3203125 128.38671875 C47.3303125 129.04671875 46.3403125 129.70671875 45.3203125 130.38671875 C45.7534375 131.09054688 46.1865625 131.794375 46.6328125 132.51953125 C51.16217175 140.55075622 52.74081027 147.20729 51.3203125 156.38671875 C48.83639644 164.37229098 43.91586545 170.90872451 36.53125 174.890625 C30.56587182 177.65295711 25.75611851 179.52043709 19.1328125 179.44921875 C18.04613281 179.44019531 16.95945313 179.43117187 15.83984375 179.421875 C14.59267578 179.40447266 14.59267578 179.40447266 13.3203125 179.38671875 C13.06765625 180.13566406 12.815 180.88460937 12.5546875 181.65625 C11.2318596 184.58237881 9.98349972 185.9930786 7.5703125 188.07421875 C6.91546875 188.65558594 6.260625 189.23695313 5.5859375 189.8359375 C-1.04630926 194.37559606 -8.95053474 194.35498624 -16.6796875 193.38671875 C-22.94290854 191.01552541 -27.73806556 187.51509778 -30.6796875 181.38671875 C-33.20144152 173.7653461 -32.98356635 166.18341197 -32.98608398 158.22509766 C-32.99371503 156.6933604 -33.00214413 155.16162694 -33.01130676 153.62989807 C-33.03316184 149.48726297 -33.04203816 145.34470163 -33.04713321 141.2020154 C-33.05078657 138.60950514 -33.05703159 136.01701392 -33.0641346 133.42451096 C-33.08859505 124.36795968 -33.10167422 115.31146543 -33.10522461 106.25488281 C-33.10886021 97.83190025 -33.13876601 89.40928197 -33.18062919 80.98641074 C-33.21538505 73.73773289 -33.23077394 66.48917554 -33.23147064 59.24041498 C-33.23226146 54.91854287 -33.24091049 50.5970426 -33.26946831 46.27525711 C-33.2957412 42.20878602 -33.29780341 38.14299274 -33.28181267 34.07647514 C-33.28000564 32.59065071 -33.28662114 31.10478644 -33.30263138 29.61904716 C-33.39056796 20.92333103 -32.81398201 13.72188803 -27.6796875 6.38671875 C-25.29296875 4.1328125 -25.29296875 4.1328125 -22.9921875 2.82421875 C-22.22519531 2.36917969 -21.45820313 1.91414062 -20.66796875 1.4453125 C-14.42796069 -1.87697077 -6.84263848 -1.56602659 0 0 Z M-19.6796875 6.44921875 C-20.3396875 6.83207031 -20.9996875 7.21492188 -21.6796875 7.609375 C-24.96711434 10.53081878 -27.27299141 14.084249 -28.04084015 18.4313488 C-28.16898025 20.71691152 -28.17505205 22.97072582 -28.13378906 25.25952148 C-28.13437317 26.11885788 -28.13495728 26.97819427 -28.13555908 27.86357117 C-28.13278892 30.68290659 -28.10174808 33.50116349 -28.0703125 36.3203125 C-28.0628463 38.28328372 -28.05715516 40.24626242 -28.05316162 42.20924377 C-28.03793517 47.35998338 -27.99867908 52.51026729 -27.9543457 57.66082764 C-27.91332848 62.92291094 -27.89513684 68.18506832 -27.875 73.44726562 C-27.83218196 83.76061618 -27.76396686 94.07362948 -27.6796875 104.38671875 C-22.73178573 104.43608385 -17.78402667 104.47242144 -12.8359375 104.49658203 C-11.15199284 104.50665192 -9.46806571 104.52030863 -7.78417969 104.53759766 C-5.36649249 104.56180301 -2.94903607 104.57319171 -0.53125 104.58203125 C0.60163956 104.59751511 0.60163956 104.59751511 1.75741577 104.61331177 C3.6132523 104.61371193 5.4685053 104.50894591 7.3203125 104.38671875 C9.86429385 101.8427374 9.58597393 100.90377116 9.62670898 97.3737793 C9.64269638 96.32896896 9.65868378 95.28415863 9.67515564 94.20768738 C9.68051834 93.07438492 9.68588104 91.94108246 9.69140625 90.7734375 C9.70043472 89.61173538 9.7094632 88.45003326 9.71876526 87.25312805 C9.73329598 84.79093005 9.74216146 82.32869319 9.74584961 79.86645508 C9.75773193 76.09975935 9.80688175 72.33470838 9.85742188 68.56835938 C9.86688715 66.17839343 9.87412168 63.7884174 9.87890625 61.3984375 C9.89843857 60.27120773 9.91797089 59.14397797 9.93809509 57.98258972 C10.00252798 51.65134108 10.00252798 51.65134108 6.85180664 46.35473633 C6.01641357 45.70529053 5.18102051 45.05584473 4.3203125 44.38671875 C3.2578125 40.88671875 3.2578125 40.88671875 3.3203125 37.38671875 C5.08672422 34.58482429 6.35081072 32.87146964 9.3203125 31.38671875 C13.3333449 30.85164776 14.85959283 31.05620247 18.1953125 33.44921875 C20.3203125 36.38671875 20.3203125 36.38671875 20.9453125 39.88671875 C20.17242241 44.21490326 18.65161693 45.62417361 15.3203125 48.38671875 C13.87008306 49.60824537 13.87008306 49.60824537 14.20678711 53.26391602 C14.20694629 54.99366042 14.21264401 56.72340956 14.22265625 58.453125 C14.22477867 59.81605934 14.22477867 59.81605934 14.22694397 61.20652771 C14.23256057 64.12079096 14.24511585 67.03497856 14.2578125 69.94921875 C14.26282536 71.91992077 14.26738864 73.89062399 14.27148438 75.86132812 C14.28253539 80.70315434 14.29981112 85.5449237 14.3203125 90.38671875 C19.9303125 90.38671875 25.5403125 90.38671875 31.3203125 90.38671875 C31.9803125 89.06671875 32.6403125 87.74671875 33.3203125 86.38671875 C35.9417255 84.26942363 38.14321429 84.26800586 41.3828125 84.51171875 C44.08589457 84.95468192 45.15324596 85.25097718 47.3203125 87.01171875 C48.71814928 90.33158111 48.70245822 92.82002539 48.3203125 96.38671875 C47.3203125 98.76171875 47.3203125 98.76171875 45.3203125 100.38671875 C41.59864996 101.39022436 36.82104051 102.27172614 33.3203125 100.38671875 C32.6603125 98.73671875 32.0003125 97.08671875 31.3203125 95.38671875 C25.7103125 95.38671875 20.1003125 95.38671875 14.3203125 95.38671875 C14.0934375 96.97484375 13.8665625 98.56296875 13.6328125 100.19921875 C13.24609375 102.90625 13.24609375 102.90625 12.3203125 105.38671875 C7.3203125 108.38671875 7.3203125 108.38671875 -6.6796875 109.38671875 C-6.6796875 124.23671875 -6.6796875 139.08671875 -6.6796875 154.38671875 C-5.3596875 155.04671875 -4.0396875 155.70671875 -2.6796875 156.38671875 C-0.17937096 160.13719357 -0.14365196 161.94528141 -0.6796875 166.38671875 C-3.27184833 170.07858417 -4.72117814 171.21555636 -9.1796875 172.01171875 C-13.6094517 171.22068943 -15.07178922 170.0219709 -17.6796875 166.38671875 C-18.4243199 162.41534594 -18.05235628 160.94572192 -15.8046875 157.57421875 C-13.6796875 155.38671875 -13.6796875 155.38671875 -11.6796875 154.38671875 C-11.6796875 139.53671875 -11.6796875 124.68671875 -11.6796875 109.38671875 C-16.9596875 109.38671875 -22.2396875 109.38671875 -27.6796875 109.38671875 C-27.77029769 117.85389286 -27.84358053 126.32068581 -27.88693619 134.78821564 C-27.90775177 138.7206483 -27.93595757 142.65273014 -27.98144531 146.58496094 C-28.0251205 150.38457149 -28.04886989 154.18384602 -28.05919647 157.98368835 C-28.06654924 159.42849512 -28.08090718 160.87328489 -28.10260773 162.31794739 C-28.22994314 171.15169321 -28.20749462 178.34414934 -21.99609375 185.26171875 C-15.8559467 189.20016497 -9.8021984 189.21535074 -2.6796875 188.38671875 C3.93940297 186.34081806 7.60556459 180.95884061 11.3203125 175.38671875 C14.26171875 175.015625 14.26171875 175.015625 17.8828125 174.94921875 C28.19443327 174.39097983 35.32293857 171.06329602 42.3203125 163.38671875 C46.53765147 157.99327681 46.98043655 152.366081 46.78515625 145.65625 C45.952356 139.79865495 43.51518473 134.58159098 39.3203125 130.38671875 C36.38521396 129.891485 33.41751559 129.97014976 30.4453125 129.94921875 C29.62933594 129.91634766 28.81335938 129.88347656 27.97265625 129.84960938 C25.64709334 129.8287438 23.5914384 129.88034179 21.3203125 130.38671875 C18.82843641 132.71013106 18.82843641 132.71013106 17.3203125 135.38671875 C14.22857498 136.93258751 11.72601698 136.68031396 8.3203125 136.38671875 C4.99395486 134.19832557 4.41446128 132.76331387 3.4453125 128.88671875 C3.27153201 124.02086509 3.27153201 124.02086509 5.3203125 121.38671875 C8.45245878 118.85690829 11.52038577 119.30508399 15.3203125 119.609375 C17.3203125 120.38671875 17.3203125 120.38671875 18.9375 122.90625 C21.64208217 125.7216757 22.22739129 125.79174784 25.953125 126.05078125 C27.78377981 126.07180025 29.61510077 126.05714841 31.4453125 126.01171875 C32.39293457 125.9977002 33.34055664 125.98368164 34.31689453 125.96923828 C41.30442217 125.72704255 46.66568269 124.71622319 52.3203125 120.38671875 C52.96871094 119.92910156 53.61710937 119.47148437 54.28515625 119 C59.66073888 114.85182313 64.08142646 109.17581424 65.3203125 102.38671875 C66.15156816 93.62290908 65.57612688 86.63744077 60.3203125 79.38671875 C54.68916759 73.00641931 47.3295695 69.05647108 39.3203125 66.38671875 C39.6576743 62.78819285 40.82026542 60.41822472 42.7578125 57.44921875 C46.36949877 51.87511335 47.99183068 47.1019006 47.3203125 40.38671875 C45.15891704 32.36237633 41.37798316 26.43619665 34.1953125 22.10546875 C30.23539197 20.06727436 26.70340225 18.38671875 22.17578125 18.38671875 C12.34465327 18.38671875 12.34465327 18.38671875 9.34765625 15.4609375 C8.41443689 13.87264494 7.52431778 12.25821663 6.6796875 10.62109375 C4.50081397 7.03972691 1.2731441 5.53095948 -2.6796875 4.38671875 C-3.9996875 4.38671875 -5.3196875 4.38671875 -6.6796875 4.38671875 C-6.79556146 12.79249431 -6.88439148 21.19793599 -6.93874836 29.6043129 C-6.96483781 33.50781726 -7.0002221 37.41077506 -7.05688477 41.31396484 C-7.11123063 45.08115759 -7.14111295 48.84782483 -7.15407372 52.61537933 C-7.16330924 54.05235823 -7.18134477 55.4893085 -7.20833778 56.92606354 C-7.24465068 58.93903021 -7.24673005 60.95252622 -7.24731445 62.96582031 C-7.25841751 64.11165588 -7.26952057 65.25749146 -7.28096008 66.43804932 C-6.4922042 70.30614578 -4.86612355 71.21323654 -1.6796875 73.38671875 C0.07191579 76.88992532 -0.70535341 80.68560244 -1.6796875 84.38671875 C-3.8046875 86.51171875 -3.8046875 86.51171875 -6.6796875 87.38671875 C-10.07554285 87.26962029 -12.58048809 87.00959841 -15.5546875 85.32421875 C-17.38919691 82.16478588 -18.06331397 79.03117019 -17.6796875 75.38671875 C-15.3046875 72.44921875 -15.3046875 72.44921875 -12.6796875 70.38671875 C-11.38531155 69.31685022 -11.38531155 69.31685022 -11.55943298 66.79881287 C-11.56165359 65.64631546 -11.56387421 64.49381805 -11.56616211 63.30639648 C-11.56623764 62.00512314 -11.56631317 60.70384979 -11.56639099 59.36314392 C-11.57149841 57.93219973 -11.57671442 56.50125593 -11.58203125 55.0703125 C-11.58389547 53.61442615 -11.58531935 52.15853918 -11.58631897 50.70265198 C-11.59014385 46.86392496 -11.59997386 43.02523556 -11.61102295 39.18652344 C-11.62123772 35.27214059 -11.62581673 31.35775169 -11.63085938 27.44335938 C-11.64159616 19.75779532 -11.65867221 12.0722623 -11.6796875 4.38671875 C-15.59020363 4.38671875 -16.5344255 4.53871781 -19.6796875 6.44921875 Z " fill="#070707" transform="translate(149.6796875,12.61328125)"/>
<path d="M0 0 C5.56818182 0.56818182 5.56818182 0.56818182 7 2 C7.1875 4.4375 7.1875 4.4375 7 7 C5 9 5 9 2.5 9.25 C0 9 0 9 -2 7 C-2.25 4.5 -2.25 4.5 -2 2 C-1.34 1.34 -0.68 0.68 0 0 Z " fill="#F0F0F0" transform="translate(82,122)"/>
<path d="M0 0 C2.5625 0.1875 2.5625 0.1875 4.5625 2.1875 C4.8125 4.6875 4.8125 4.6875 4.5625 7.1875 C2.5625 9.1875 2.5625 9.1875 0.0625 9.5 C-1.175 9.3453125 -1.175 9.3453125 -2.4375 9.1875 C-4.4375 6.1875 -4.4375 6.1875 -4.125 3.5625 C-3.16420807 0.24340062 -3.16420807 0.24340062 0 0 Z " fill="#F0F0F0" transform="translate(140.4375,86.8125)"/>
<path d="M0 0 C1 1 1 1 1.1875 3.4375 C1 6 1 6 -1 8 C-3.5 8.25 -3.5 8.25 -6 8 C-6.66 7.34 -7.32 6.68 -8 6 C-7.75 2.9375 -7.75 2.9375 -7 0 C-4.31633121 -1.3418344 -2.84719317 -0.73004953 0 0 Z " fill="#F0F0F0" transform="translate(144,172)"/>
<path d="M0 0 C1 1 1 1 1.1875 3.4375 C1 6 1 6 -1 8 C-3.5 8.25 -3.5 8.25 -6 8 C-6.66 7.34 -7.32 6.68 -8 6 C-7.75 2.9375 -7.75 2.9375 -7 0 C-4.31633121 -1.3418344 -2.84719317 -0.73004953 0 0 Z " fill="#F1F1F1" transform="translate(165,137)"/>
<path d="M0 0 C2.5 0.25 2.5 0.25 4.5 2.25 C4.125 5.375 4.125 5.375 3.5 8.25 C0.625 8.875 0.625 8.875 -2.5 9.25 C-4.5 7.25 -4.5 7.25 -4.75 4.75 C-4.40058445 1.25584452 -3.49415548 0.34941555 0 0 Z " fill="#F1F1F1" transform="translate(63.5,72.75)"/>
<path d="M0 0 C2.5 0.25 2.5 0.25 4.5 2.25 C4.125 5.375 4.125 5.375 3.5 8.25 C0.625 8.875 0.625 8.875 -2.5 9.25 C-4.5 7.25 -4.5 7.25 -4.75 4.75 C-4.40058445 1.25584452 -3.49415548 0.34941555 0 0 Z " fill="#F0F0F0" transform="translate(84.5,37.75)"/>
<path d="M0 0 C2.5 0.25 2.5 0.25 4.5 2.25 C4.17028521 5.54714793 3.8773161 6.8726839 1.5 9.25 C-3.05555556 8.69444444 -3.05555556 8.69444444 -4.5 7.25 C-4.6875 4.8125 -4.6875 4.8125 -4.5 2.25 C-2.5 0.25 -2.5 0.25 0 0 Z " fill="#F2F2F2" transform="translate(63.5,160.75)"/>
<path d="M0 0 C2.5 -0.3125 2.5 -0.3125 5 0 C7 2 7 2 7.25 4.5 C7 7 7 7 5 9 C1.875 8.625 1.875 8.625 -1 8 C-1.625 5.6875 -1.625 5.6875 -2 3 C-1.34 2.01 -0.68 1.02 0 0 Z " fill="#F2F2F2" transform="translate(187,101)"/>
<path d="M0 0 C4.55555556 0.55555556 4.55555556 0.55555556 6 2 C6.1875 4.4375 6.1875 4.4375 6 7 C4 9 4 9 1.5 9.25 C-1 9 -1 9 -3 7 C-2.67028521 3.70285207 -2.3773161 2.3773161 0 0 Z " fill="#F2F2F2" transform="translate(160,48)"/>
<path d="M0 0 C3.125 0.375 3.125 0.375 6 1 C6.6875 3.3125 6.6875 3.3125 7 6 C5.875 7.875 5.875 7.875 4 9 C-0.42105263 8.57894737 -0.42105263 8.57894737 -2 7 C-2.1875 4.5625 -2.1875 4.5625 -2 2 C-1.34 1.34 -0.68 0.68 0 0 Z " fill="#F4F4F4" transform="translate(33,108)"/>
</svg>
